# xmcd
#
# Track frame offsets:
#	150
#	18715
#	36621
#	52621
#	71719
#	87106
#	100741
#	115815
#	131770
#	146861
#
# Disc length: 2652 seconds
#
# Revision: 0
# Processed by: cddbd v1.5.2PL0 Copyright (c) Steve Scherf et al.
# Submitted via: dBpowerAMP V4.0
#
DISCID=8d0a5a0a
DTITLE=สุนทรี เวชานนท์ - ดอกไม้เมือง
DYEAR=2005
DGENRE=Country
TTITLE0=แม่วัง
TTITLE1=ดอกไม้เมือง
TTITLE2=ของกิ๋นคนเมือง (ภาค 2)
TTITLE3=กิ๊ดเติงหา
TTITLE4=สาวเชียงใหม่
TTITLE5=ยินดีต้อนรับ
TTITLE6=เดือนดับที่ดอยหลวง
TTITLE7=สัปปะลี่
TTITLE8=To the Brave Dreamer
TTITLE9=น้อยไจยา
EXTD=
EXTT0=
EXTT1=
EXTT2=
EXTT3=
EXTT4=
EXTT5=
EXTT6=
EXTT7=
EXTT8=
EXTT9=
PLAYORDER=
